<svg xmlns="http://www.w3.org/2000/svg" width="600" height="400" viewBox="0 0 600 400"><rect width="100%" height="100%" fill="#DDDDDD"/><path fill="#999999" d="m133.31 188.415-1.04 1.96q-.19.33-.4.48-.21.14-.52.14-.32 0-.7-.24-.38-.24-.91-.53-.53-.3-1.23-.54-.71-.24-1.67-.24-.86 0-1.52.21-.65.21-1.09.58-.44.38-.66.9-.21.51-.21 1.13 0 .8.44 1.32.44.53 1.17.9t1.66.67q.93.29 1.9.63.98.33 1.91.77.93.44 1.66 1.12.73.67 1.17 1.65.44.97.44 2.37 0 1.52-.52 2.84-.52 1.33-1.52 2.31-1 .99-2.44 1.55-1.44.57-3.3.57-1.07 0-2.11-.21-1.04-.21-1.99-.6t-1.79-.93q-.84-.54-1.49-1.21l1.23-2q.15-.21.4-.36t.53-.15q.38 0 .83.32.45.32 1.07.71.62.38 1.45.7.83.32 1.99.32 1.79 0 2.76-.85.98-.84.98-2.42 0-.89-.44-1.44-.45-.56-1.17-.94-.73-.38-1.66-.65-.93-.26-1.89-.57-.96-.31-1.89-.74-.93-.44-1.66-1.13-.73-.7-1.17-1.75-.44-1.04-.44-2.58 0-1.22.48-2.39.49-1.16 1.42-2.06.93-.9 2.3-1.44 1.36-.54 3.13-.54 1.98 0 3.65.62 1.68.62 2.86 1.74Zm6.44 10.52h7.23q0-.74-.21-1.4-.21-.66-.63-1.16-.42-.49-1.06-.78-.64-.29-1.5-.29-1.66 0-2.61.95-.95.94-1.22 2.68Zm9.77 2.31h-9.84q.09 1.22.43 2.11.34.9.9 1.48t1.33.87q.76.28 1.69.28.93 0 1.61-.21.67-.22 1.17-.49.51-.26.89-.48.38-.21.73-.21.49 0 .72.35l1.1 1.4q-.64.74-1.43 1.25-.79.5-1.65.8-.86.3-1.75.43-.89.12-1.73.12-1.66 0-3.08-.55-1.43-.55-2.48-1.63-1.06-1.07-1.66-2.66-.61-1.59-.61-3.68 0-1.63.53-3.06.53-1.44 1.51-2.5.99-1.06 2.4-1.68 1.42-.62 3.21-.62 1.5 0 2.77.48t2.19 1.4q.91.92 1.43 2.27.52 1.34.52 3.06 0 .86-.19 1.17-.18.3-.71.3Zm3.81-15.56h3.83v23.03h-3.83v-23.03Zm10.68 13.25h7.23q0-.74-.21-1.4-.21-.66-.63-1.16-.42-.49-1.06-.78-.65-.29-1.5-.29-1.66 0-2.61.95-.95.94-1.22 2.68Zm9.77 2.31h-9.85q.1 1.22.44 2.11.34.9.9 1.48t1.32.87q.77.28 1.7.28.93 0 1.6-.21.68-.22 1.18-.49.51-.26.89-.48.38-.21.73-.21.48 0 .72.35l1.1 1.4q-.64.74-1.43 1.25-.79.5-1.65.8-.86.3-1.75.43-.89.12-1.73.12-1.66 0-3.09-.55-1.42-.55-2.48-1.63-1.05-1.07-1.65-2.66-.61-1.59-.61-3.68 0-1.63.53-3.06.53-1.44 1.51-2.5t2.4-1.68q1.42-.62 3.2-.62 1.51 0 2.78.48 1.27.48 2.18 1.4.92.92 1.44 2.27.52 1.34.52 3.06 0 .86-.19 1.17-.19.3-.71.3Zm16.16-6.46-1 1.39q-.17.22-.34.34-.16.13-.47.13-.29 0-.57-.18-.28-.18-.67-.41-.39-.22-.92-.4-.54-.18-1.33-.18-1 0-1.76.37-.76.36-1.27 1.04-.5.69-.75 1.65-.25.97-.25 2.2 0 1.27.27 2.26.28.99.79 1.67.51.67 1.24 1.02t1.64.35q.91 0 1.48-.23.57-.22.95-.49.39-.27.68-.5.28-.22.64-.22.47 0 .7.35l1.1 1.4q-.64.74-1.38 1.25-.74.5-1.54.8-.8.3-1.65.43-.84.12-1.68.12-1.47 0-2.77-.55t-2.28-1.6q-.98-1.06-1.54-2.58-.57-1.53-.57-3.48 0-1.75.5-3.25.51-1.5 1.49-2.59.97-1.09 2.41-1.71 1.44-.62 3.32-.62 1.78 0 3.12.57 1.34.58 2.41 1.65Zm7.85 14.18q-2.08 0-3.19-1.17-1.11-1.17-1.11-3.23v-8.89h-1.62q-.31 0-.53-.2-.22-.2-.22-.6v-1.52l2.56-.42.81-4.34q.07-.31.29-.48.22-.17.56-.17h1.98v5.01h4.25v2.72h-4.25v8.62q0 .75.37 1.17.36.41 1 .41.35 0 .59-.08.24-.09.42-.18t.32-.18q.14-.08.28-.08.17 0 .28.08.11.09.23.26l1.15 1.86q-.84.7-1.93 1.05-1.08.36-2.24.36Zm22.16-4.36v-2.68q-1.66.08-2.79.29-1.13.21-1.81.53-.68.33-.98.76-.29.44-.29.95 0 1.01.59 1.44.6.43 1.56.43 1.18 0 2.04-.42.86-.43 1.68-1.3Zm-8.09-8.35-.68-1.23q2.74-2.51 6.6-2.51 1.4 0 2.5.46t1.86 1.27q.76.81 1.15 1.95.4 1.13.4 2.48v10.04h-1.74q-.54 0-.84-.16-.29-.17-.46-.66l-.34-1.15q-.61.54-1.18.95-.57.42-1.19.69-.62.28-1.33.43-.7.15-1.56.15-1 0-1.86-.27-.85-.27-1.47-.82-.62-.54-.96-1.35-.34-.8-.34-1.87 0-.61.2-1.2.2-.6.66-1.14.46-.54 1.19-1.02.72-.49 1.79-.84 1.06-.36 2.47-.58 1.41-.23 3.22-.27v-.93q0-1.6-.68-2.37t-1.97-.77q-.93 0-1.54.22t-1.08.49q-.46.27-.84.49-.38.22-.85.22-.4 0-.68-.21t-.45-.49Zm18.74-2.75.26 1.26q.48-.48 1.02-.89.53-.41 1.13-.7.6-.29 1.28-.45.68-.16 1.49-.16 1.3 0 2.31.44 1 .44 1.68 1.24.67.8 1.02 1.91.35 1.11.35 2.44v10.12h-3.83v-10.12q0-1.46-.66-2.26-.67-.8-2.04-.8-.99 0-1.86.45-.86.45-1.64 1.23v11.5h-3.83v-15.9h2.34q.75 0 .98.69Zm26.49-7.2v22.41h-4.19v-22.41h4.19Zm8.23 22.41h-3.83v-15.9h2.34q.75 0 .98.69l.25 1.18q.42-.46.87-.85.46-.39.98-.67t1.11-.44q.6-.16 1.31-.16 1.51 0 2.48.81.97.82 1.45 2.16.37-.79.93-1.35.55-.57 1.22-.92.67-.36 1.42-.53.75-.17 1.51-.17 1.32 0 2.34.4 1.02.4 1.72 1.18.7.78 1.06 1.89.37 1.12.37 2.56v10.12H280v-10.12q0-1.52-.67-2.29-.66-.77-1.95-.77-.59 0-1.09.21-.51.2-.89.58-.38.38-.59.95-.22.57-.22 1.32v10.12h-3.84v-10.12q0-1.6-.65-2.33-.64-.73-1.88-.73-.84 0-1.56.42-.72.41-1.34 1.12v11.64Zm30.54-4.11v-2.68q-1.66.08-2.79.29-1.14.21-1.82.53-.68.33-.97.76-.3.44-.3.95 0 1.01.6 1.44.59.43 1.56.43 1.17 0 2.03-.42.86-.43 1.69-1.3Zm-8.1-8.35-.68-1.23q2.75-2.51 6.61-2.51 1.39 0 2.49.46 1.1.46 1.86 1.27t1.16 1.95q.39 1.13.39 2.48v10.04h-1.74q-.54 0-.83-.16-.3-.17-.47-.66l-.34-1.15q-.6.54-1.18.95-.57.42-1.19.69-.62.28-1.33.43-.7.15-1.55.15-1.01 0-1.86-.27-.86-.27-1.48-.82-.62-.54-.96-1.35-.34-.8-.34-1.87 0-.61.2-1.2.21-.6.66-1.14.46-.54 1.19-1.02.73-.49 1.79-.84 1.06-.36 2.47-.58 1.41-.23 3.23-.27v-.93q0-1.6-.69-2.37-.68-.77-1.97-.77-.93 0-1.54.22t-1.07.49l-.85.49q-.38.22-.84.22-.41 0-.69-.21-.28-.21-.45-.49Zm21.24 4.12q.71 0 1.24-.19.53-.2.87-.54.35-.34.53-.82.18-.48.18-1.05 0-1.18-.71-1.87-.7-.69-2.11-.69t-2.12.69q-.7.69-.7 1.87 0 .56.18 1.04.17.48.52.82.35.35.89.55.53.19 1.23.19Zm4.32 9.05q0-.46-.28-.76-.27-.29-.75-.45-.49-.17-1.13-.24-.64-.08-1.36-.12-.72-.04-1.49-.07-.77-.03-1.5-.12-.63.35-1.03.83-.39.48-.39 1.12 0 .42.21.78.21.37.66.63.46.26 1.19.41.73.15 1.78.15 1.07 0 1.85-.17.77-.16 1.27-.44.51-.29.74-.69.23-.39.23-.86Zm-.76-16.07h4.58v1.43q0 .68-.82.83l-1.43.27q.32.82.32 1.79 0 1.18-.47 2.14-.47.95-1.31 1.61-.83.67-1.97 1.04-1.14.36-2.46.36-.47 0-.9-.05-.43-.04-.85-.12-.75.45-.75 1.01 0 .48.45.7.44.23 1.17.32.72.09 1.65.12.93.02 1.91.1.98.07 1.91.27.93.19 1.66.61.72.42 1.17 1.14.44.72.44 1.85 0 1.06-.52 2.05-.52.99-1.51 1.77-.98.77-2.41 1.24-1.44.48-3.27.48-1.79 0-3.13-.35-1.33-.35-2.21-.93-.89-.58-1.32-1.34-.43-.76-.43-1.58 0-1.12.67-1.87t1.85-1.2q-.63-.33-1.01-.87-.37-.54-.37-1.43 0-.35.13-.73.14-.38.39-.76.26-.37.64-.7.39-.33.92-.6-1.21-.65-1.9-1.73-.69-1.09-.69-2.55 0-1.17.47-2.13.48-.95 1.32-1.62.85-.68 2-1.04 1.16-.35 2.52-.35 1.02 0 1.92.21.9.21 1.64.61Zm10.02 5.58h7.22q0-.74-.21-1.4-.21-.66-.63-1.16-.42-.49-1.06-.78-.64-.29-1.49-.29-1.66 0-2.62.95-.95.94-1.21 2.68Zm9.76 2.31h-9.84q.09 1.22.43 2.11.34.9.9 1.48t1.33.87q.77.28 1.7.28.93 0 1.6-.21.67-.22 1.18-.49.5-.26.88-.48.38-.21.74-.21.48 0 .71.35l1.1 1.4q-.63.74-1.43 1.25-.79.5-1.65.8-.86.3-1.75.43-.89.12-1.73.12-1.65 0-3.08-.55-1.43-.55-2.48-1.63-1.05-1.07-1.66-2.66-.6-1.59-.6-3.68 0-1.63.52-3.06.53-1.44 1.51-2.5.99-1.06 2.41-1.68 1.42-.62 3.2-.62 1.5 0 2.77.48t2.19 1.4q.91.92 1.43 2.27.52 1.34.52 3.06 0 .86-.18 1.17-.19.3-.72.3Zm38.46-14.94h3.27l-6.96 22.41h-3.77l-4.9-15.31q-.2-.56-.37-1.37-.09.39-.18.73-.1.34-.21.64l-4.94 15.31h-3.78l-6.95-22.41h3.49q.54 0 .91.25.36.26.49.69l3.81 13.41q.12.5.24 1.08.12.58.24 1.21.12-.65.27-1.22.15-.57.32-1.07l4.4-13.41q.13-.35.49-.65.36-.29.89-.29h1.23q.54 0 .88.26.34.26.51.68l4.39 13.41q.32.96.59 2.22.2-1.23.45-2.22l3.81-13.41q.09-.39.47-.66.38-.28.91-.28Zm5.55 6.51h3.84v15.9h-3.84v-15.9Zm4.37-4.64q0 .5-.2.93-.21.44-.54.76-.33.33-.78.52t-.96.19q-.5 0-.94-.19-.44-.19-.77-.52-.32-.32-.52-.76-.19-.43-.19-.93 0-.51.19-.96.2-.45.52-.77.33-.33.77-.52.44-.2.94-.2.51 0 .96.2.45.19.78.52.33.32.54.77.2.45.2.96Zm8.68 20.79q-2.08 0-3.19-1.17-1.11-1.17-1.11-3.23v-8.89h-1.62q-.31 0-.53-.2-.22-.2-.22-.6v-1.52l2.56-.42.81-4.34q.07-.31.29-.48.22-.17.56-.17h1.98v5.01h4.25v2.72h-4.25v8.62q0 .75.37 1.17.36.41 1 .41.35 0 .59-.08.24-.09.42-.18t.32-.18q.14-.08.28-.08.17 0 .28.08.11.09.23.26l1.15 1.86q-.84.7-1.92 1.05-1.09.36-2.25.36Zm10.06-23.28v8.83q.93-.87 2.04-1.41 1.12-.54 2.62-.54 1.3 0 2.31.44t1.68 1.24q.68.8 1.03 1.91.35 1.11.35 2.44v10.12h-3.83v-10.12q0-1.46-.67-2.26-.67-.8-2.03-.8-.99 0-1.86.45-.87.45-1.64 1.23v11.5h-3.83v-23.03h3.83Zm37.45.62v3.42h-6.76v18.99h-4.17v-18.99h-6.76v-3.42h17.69Zm5.36 12.63h7.22q0-.74-.21-1.4-.21-.66-.63-1.16-.41-.49-1.06-.78-.64-.29-1.49-.29-1.66 0-2.62.95-.95.94-1.21 2.68Zm9.76 2.31h-9.84q.09 1.22.43 2.11.35.9.9 1.48.56.58 1.33.87.77.28 1.7.28.93 0 1.6-.21.67-.22 1.18-.49.5-.26.88-.48.38-.21.74-.21.48 0 .71.35l1.1 1.4q-.63.74-1.42 1.25-.8.5-1.66.8-.86.3-1.75.43-.89.12-1.72.12-1.66 0-3.09-.55t-2.48-1.63q-1.05-1.07-1.66-2.66-.6-1.59-.6-3.68 0-1.63.52-3.06.53-1.44 1.52-2.5.98-1.06 2.4-1.68 1.42-.62 3.2-.62 1.5 0 2.77.48t2.19 1.4q.91.92 1.43 2.27.52 1.34.52 3.06 0 .86-.18 1.17-.19.3-.72.3Zm12.53-.9 5.44 8.37h-3.69q-.42 0-.68-.22-.25-.21-.42-.49l-3.37-5.54q-.07.27-.17.5-.1.23-.23.43l-2.97 4.61q-.17.26-.42.49-.25.22-.62.22H454l5.46-8.2-5.24-7.7h3.69q.42 0 .62.11.2.12.35.38l3.34 5.3q.17-.52.48-1.03l2.68-4.19q.34-.57.88-.57h3.52l-5.22 7.53Zm12.72 8.62q-2.07 0-3.18-1.17-1.11-1.17-1.11-3.23v-8.89h-1.63q-.31 0-.53-.2-.21-.2-.21-.6v-1.52l2.55-.42.81-4.34q.08-.31.3-.48.21-.17.55-.17h1.99v5.01h4.24v2.72h-4.24v8.62q0 .75.36 1.17.37.41 1 .41.36 0 .6-.08.24-.09.42-.18t.31-.18q.14-.08.28-.08.17 0 .28.08.11.09.23.26l1.15 1.86q-.84.7-1.92 1.05-1.08.36-2.25.36Z"/></svg>